<?xml version="1.0" encoding="UTF-8" standalone="no"?>
<!-- Created with Inkscape (http://www.inkscape.org/) -->

<svg
   xmlns:dc="http://purl.org/dc/elements/1.1/"
   xmlns:cc="http://creativecommons.org/ns#"
   xmlns:rdf="http://www.w3.org/1999/02/22-rdf-syntax-ns#"
   xmlns:svg="http://www.w3.org/2000/svg"
   xmlns="http://www.w3.org/2000/svg"
   xmlns:sodipodi="http://sodipodi.sourceforge.net/DTD/sodipodi-0.dtd"
   xmlns:inkscape="http://www.inkscape.org/namespaces/inkscape"
   width="100px"
   height="100px"
   viewBox="0 0 100 100"
   version="1.1"
   id="SVGRoot"
   inkscape:version="0.92.2 (5c3e80d, 2017-08-06)"
   sodipodi:docname="eraser.svg">
  <sodipodi:namedview
     id="base"
     pagecolor="#ffffff"
     bordercolor="#666666"
     borderopacity="1.0"
     inkscape:pageopacity="0.0"
     inkscape:pageshadow="2"
     inkscape:zoom="45.254834"
     inkscape:cx="51.656821"
     inkscape:cy="97.511721"
     inkscape:document-units="px"
     inkscape:current-layer="layer1"
     showgrid="false"
     inkscape:window-width="1920"
     inkscape:window-height="1001"
     inkscape:window-x="-9"
     inkscape:window-y="-9"
     inkscape:window-maximized="1"
     inkscape:grid-bbox="true" />
  <defs
     id="defs5095" />
  <metadata
     id="metadata5098">
    <rdf:RDF>
      <cc:Work
         rdf:about="">
        <dc:format>image/svg+xml</dc:format>
        <dc:type
           rdf:resource="http://purl.org/dc/dcmitype/StillImage" />
        <dc:title />
      </cc:Work>
    </rdf:RDF>
  </metadata>
  <g
     id="layer1"
     inkscape:groupmode="layer"
     inkscape:label="Layer 1">
    <g
       id="g830"
       transform="matrix(0.59390752,0.59390752,-0.64662906,0.64662906,52.63602,-12.026887)">
      <path
         sodipodi:nodetypes="cccssssssc"
         inkscape:connector-curvature="0"
         id="rect821"
         d="M 82.819097,50 H 17.180903 m 0,0 V 5.7563387 c 0,-1.4167385 0.985137,-2.7617097 2,-3.7502441 1.067853,-1.04014971 2.509288,-2 4,-2 h 53.638194 c 1.490712,0 2.945907,0.94590748 4,2 1.054093,1.0540926 2,2.509288 2,4 V 50"
         style="opacity:1;fill:#3b3bb5;fill-opacity:1;stroke:#3b3bb5;stroke-width:1;stroke-linecap:round;stroke-linejoin:miter;stroke-miterlimit:4;stroke-dasharray:none;stroke-dashoffset:0;stroke-opacity:1" />
      <path
         style="opacity:1;fill:none;fill-opacity:1;stroke:#3b3bb5;stroke-width:1;stroke-linecap:round;stroke-linejoin:miter;stroke-miterlimit:4;stroke-dasharray:none;stroke-dashoffset:0;stroke-opacity:1"
         d="m 82.819097,50 v 43.993905 c 0,1.490712 -0.945907,2.945907 -2,4 -1.054093,1.054093 -2.509288,2 -4,2 H 23.180903 c -1.490712,0 -2.932147,-0.95985 -4,-2 -1.014863,-0.988534 -2,-2.333506 -2,-3.750244 V 50 m 0,0 h 65.638194 z"
         id="path824"
         inkscape:connector-curvature="0"
         sodipodi:nodetypes="cssssssccc" />
    </g>
  </g>
</svg>
