<?xml version="1.0" encoding="UTF-8" standalone="no"?>
<!-- Created with Inkscape (http://www.inkscape.org/) -->

<svg
   xmlns:dc="http://purl.org/dc/elements/1.1/"
   xmlns:cc="http://creativecommons.org/ns#"
   xmlns:rdf="http://www.w3.org/1999/02/22-rdf-syntax-ns#"
   xmlns:svg="http://www.w3.org/2000/svg"
   xmlns="http://www.w3.org/2000/svg"
   xmlns:sodipodi="http://sodipodi.sourceforge.net/DTD/sodipodi-0.dtd"
   xmlns:inkscape="http://www.inkscape.org/namespaces/inkscape"
   width="100px"
   height="100px"
   viewBox="0 0 100 100"
   version="1.1"
   id="SVGRoot"
   inkscape:version="0.92.2 (5c3e80d, 2017-08-06)"
   sodipodi:docname="eyedropper.svg">
  <sodipodi:namedview
     id="base"
     pagecolor="#ffffff"
     bordercolor="#666666"
     borderopacity="1.0"
     inkscape:pageopacity="0.0"
     inkscape:pageshadow="2"
     inkscape:zoom="1"
     inkscape:cx="-373.72166"
     inkscape:cy="136.14847"
     inkscape:document-units="px"
     inkscape:current-layer="layer1"
     showgrid="false"
     inkscape:window-width="1920"
     inkscape:window-height="1001"
     inkscape:window-x="-9"
     inkscape:window-y="-9"
     inkscape:window-maximized="1"
     inkscape:grid-bbox="true" />
  <defs
     id="defs5095" />
  <metadata
     id="metadata5098">
    <rdf:RDF>
      <cc:Work
         rdf:about="">
        <dc:format>image/svg+xml</dc:format>
        <dc:type
           rdf:resource="http://purl.org/dc/dcmitype/StillImage" />
        <dc:title />
      </cc:Work>
    </rdf:RDF>
  </metadata>
  <g
     id="layer1"
     inkscape:groupmode="layer"
     inkscape:label="Layer 1">
    <path
       style="opacity:1;fill:none;fill-opacity:1;stroke:#3b3bb5;stroke-width:5.01016808;stroke-linecap:square;stroke-miterlimit:4;stroke-dasharray:none;stroke-dashoffset:0;stroke-opacity:1"
       d="m -192.1672,52.579002 c 0,0 -33.43952,32.577404 -41.1117,40.249576 -2.11569,2.115688 -6.68611,0.355327 -8.80179,-1.760361 -2.11569,-2.11569 -3.87066,-6.680727 -1.76036,-8.801798 8.88694,-8.932362 40.30091,-41.186118 40.30091,-41.186118 z"
       id="rect816"
       inkscape:connector-curvature="0"
       sodipodi:nodetypes="cssscc" />
    <path
       style="opacity:1;fill:none;fill-opacity:1;stroke:#3b3bb5;stroke-width:5.01016808;stroke-linecap:square;stroke-miterlimit:4;stroke-dasharray:none;stroke-dashoffset:0;stroke-opacity:1"
       d="m -192.35476,29.055873 c 2.94066,-2.940662 15.59175,8.981074 12.28641,12.286413 -3.374,3.374 -6.89535,6.033218 -6.89535,6.033218 l -11.42428,-11.424286 c 0,0 2.44889,-3.31102 6.03322,-6.895345 z"
       id="rect816-8"
       inkscape:connector-curvature="0"
       sodipodi:nodetypes="ssccs" />
    <path
       style="opacity:1;fill:none;fill-opacity:1;stroke:#3b3bb5;stroke-width:4.76895809;stroke-linecap:square;stroke-miterlimit:4;stroke-dasharray:none;stroke-dashoffset:0;stroke-opacity:1"
       d="m -165.78208,32.426502 c -4.49603,4.496027 -10.964,3.6745 -15.46003,-0.821525 -4.49602,-4.496026 -5.31755,-10.963998 -0.82152,-15.460025 2.24801,-2.248011 7.48974,-4.531181 10.27137,-5.502615 6.22063,-2.1724456 15.34065,-3.8278608 15.34065,-3.8278608 0,0 -3.06837,7.9617898 -4.14082,11.5851118 -1.61466,5.45518 -0.32058,9.157844 -5.18965,14.026914 z"
       id="path836"
       inkscape:connector-curvature="0"
       sodipodi:nodetypes="sccscss" />
    <g
       id="g838"
       transform="matrix(0.94313284,0,0,0.94313284,5.6880737,0.00461098)">
      <path
         sodipodi:nodetypes="sssss"
         inkscape:connector-curvature="0"
         id="path815"
         d="M 90.454694,29.66906 C 81.163596,38.960158 73.608961,46.469373 63.622272,36.482682 53.635574,26.495984 61.144794,18.941359 70.435894,9.650259 79.726991,0.3591621 91.740276,-2.6914008 97.268324,2.8366384 102.79635,8.3646776 99.745784,20.377964 90.454694,29.66906 Z"
         style="opacity:1;fill:#3b3bb5;fill-opacity:1;stroke:none;stroke-width:13.79067326;stroke-linecap:square;stroke-miterlimit:4;stroke-dasharray:none;stroke-dashoffset:0;stroke-opacity:1" />
      <path
         inkscape:connector-curvature="0"
         id="path818"
         d="M 81.153881,49.967813 A 21.93215,5.0966228 45 0 1 62.041652,38.063298 21.93215,5.0966228 45 0 1 50.137139,18.951069 21.93215,5.0966228 45 0 1 69.249366,30.855584 21.93215,5.0966228 45 0 1 81.153881,49.967813 Z"
         style="opacity:1;fill:#3b3bb5;fill-opacity:1;stroke:#3b3bb5;stroke-width:1.9430151;stroke-linecap:square;stroke-miterlimit:4;stroke-dasharray:none;stroke-dashoffset:0;stroke-opacity:1" />
      <path
         sodipodi:nodetypes="ccssssc"
         inkscape:connector-curvature="0"
         id="rect820"
         d="m 58.086855,31.800451 9.739485,9.739487 -39.588934,39.588935 c -1.671807,1.671806 -6.275989,0.806718 -8.424302,0.806718 -1.000275,0 -2.121904,-1.121628 -2.121902,-2.121904 0,-2.803817 -0.865088,-6.752493 0.806716,-8.4243 z"
         style="opacity:1;fill:none;fill-opacity:1;stroke:#3b3bb5;stroke-width:1.9430151;stroke-linecap:square;stroke-miterlimit:4;stroke-dasharray:none;stroke-dashoffset:0;stroke-opacity:1" />
    </g>
    <path
       style="opacity:1;fill:none;fill-opacity:1;stroke:#3b3bb5;stroke-width:1.78478944;stroke-linecap:square;stroke-miterlimit:4;stroke-dasharray:none;stroke-dashoffset:0;stroke-opacity:1"
       d="m 26.439311,91.042567 c 0,3.877082 -3.142996,7.020083 -7.020078,7.020083 -3.877082,0 -7.020078,-3.143001 -7.020078,-7.020083 0,-3.877082 7.020078,-12.039801 7.020078,-12.039801 0,0 7.020078,8.162719 7.020078,12.039801 z"
       id="path823"
       inkscape:connector-curvature="0"
       sodipodi:nodetypes="ssscs" />
  </g>
</svg>
